<svg width="30" height="31" viewBox="0 0 30 31" fill="none" xmlns="http://www.w3.org/2000/svg">
<path d="M10.536 23.5209L6.06013 25.9624C5.79748 26.1056 5.56143 26.2816 5.3418 26.4735C7.95133 28.6738 11.32 30.0012 15.0005 30.0012C18.6538 30.0012 22.0009 28.6936 24.6031 26.5233C24.3631 26.3207 24.1027 26.1384 23.814 25.9946L19.0212 23.5985C18.4019 23.2889 18.0108 22.656 18.0108 21.9637V20.0833C18.1455 19.9299 18.2995 19.7329 18.4642 19.5002C19.1174 18.5775 19.6116 17.5626 19.9541 16.4978C20.5688 16.3082 21.0217 15.7404 21.0217 15.0657V13.0584C21.0217 12.6169 20.8252 12.2224 20.5201 11.9461V9.04451C20.5201 9.04451 21.1162 4.52905 15.001 4.52905C8.8859 4.52905 9.48196 9.04451 9.48196 9.04451V11.9461C9.17629 12.2224 8.98043 12.6169 8.98043 13.0584V15.0657C8.98043 15.5944 9.25837 16.0597 9.67442 16.3286C10.1759 18.5119 11.4892 20.0833 11.4892 20.0833V21.9173C11.4886 22.5852 11.123 23.2005 10.536 23.5209Z" fill="white"/>
<path d="M15.257 0.0022948C6.97383 -0.13922 0.14375 6.46104 0.00223524 14.7442C-0.0781453 19.4408 2.01514 23.6619 5.34811 26.469C5.56604 26.2788 5.79982 26.1045 6.05964 25.9629L10.5355 23.5215C11.1225 23.2011 11.4882 22.5858 11.4882 21.9167V20.0827C11.4882 20.0827 10.1743 18.5113 9.67337 16.328C9.25788 16.0592 8.97938 15.5944 8.97938 15.0652V13.0579C8.97938 12.6164 9.17581 12.2218 9.48091 11.9456V9.04397C9.48091 9.04397 8.88485 4.52851 15 4.52851C21.1151 4.52851 20.5191 9.04397 20.5191 9.04397V11.9456C20.8248 12.2218 21.0206 12.6164 21.0206 13.0579V15.0652C21.0206 15.7399 20.5678 16.3077 19.953 16.4973C19.6106 17.562 19.1164 18.577 18.4632 19.4997C18.2984 19.7323 18.1445 19.9293 18.0097 20.0827V21.9632C18.0097 22.6555 18.4009 23.2889 19.0202 23.5979L23.813 25.9941C24.1005 26.1379 24.3604 26.3196 24.5998 26.5216C27.832 23.8261 29.9202 19.7957 29.9978 15.257C30.1404 6.97389 23.5407 0.14381 15.257 0.0022948Z" fill="#556080"/>
</svg>
