<svg width="48" height="60" viewBox="0 0 48 60" fill="none" xmlns="http://www.w3.org/2000/svg">
<path fill-rule="evenodd" clip-rule="evenodd" d="M43 0V12L34 3H3V55H0V0H43ZM5 5H33.414L48 19.586V60H5V5ZM24 17H14C13.448 17 13 17.447 13 18C13 18.553 13.448 19 14 19H24C24.552 19 25 18.553 25 18C25 17.447 24.552 17 24 17ZM14 51H39C39.552 51 40 50.553 40 50C40 49.447 39.552 49 39 49H14C13.448 49 13 49.447 13 50C13 50.553 13.448 51 14 51ZM14 43H39C39.552 43 40 42.553 40 42C40 41.447 39.552 41 39 41H14C13.448 41 13 41.447 13 42C13 42.553 13.448 43 14 43ZM14 35H39C39.552 35 40 34.553 40 34C40 33.447 39.552 33 39 33H14C13.448 33 13 33.447 13 34C13 34.553 13.448 35 14 35ZM14 27H39C39.552 27 40 26.553 40 26C40 25.447 39.552 25 39 25H14C13.448 25 13 25.447 13 26C13 26.553 13.448 27 14 27ZM32 7V21H46L32 7Z" fill="#0E8C45"/>
</svg>
