<svg width="22" height="22" viewBox="0 0 22 22" fill="none" xmlns="http://www.w3.org/2000/svg">
<path fill-rule="evenodd" clip-rule="evenodd" d="M20.7715 1.44763H18.2381V0.361908C18.2381 0.161774 18.0764 0 17.8762 0H15.3429C15.1428 0 14.981 0.161774 14.981 0.361908V1.44763H7.01908V0.361908C7.01908 0.161774 6.85731 0 6.65718 0H4.12384C3.92371 0 3.76194 0.161774 3.76194 0.361908V1.44763H1.2286C1.02847 1.44763 0.866699 1.60941 0.866699 1.80951V5.79047V21.3524C0.866699 21.5525 1.02847 21.7143 1.2286 21.7143H20.7715C20.9716 21.7143 21.1334 21.5525 21.1334 21.3524V5.79047V1.80951C21.1334 1.60941 20.9716 1.44763 20.7715 1.44763ZM17.8762 11.581V12.3047V14.8381V15.5619V18.8191H14.6191H13.8953H11.3619H10.6381H8.10479H7.38099H4.12384V15.5619V14.8381V12.3047V11.581V8.32382H7.38099H8.10479H10.6381H11.3619H13.8953H14.6191H17.8762V11.581ZM20.4096 5.42856H1.59051V2.17142H3.76194V3.25714C3.76194 3.45728 3.92371 3.61905 4.12384 3.61905H6.65718C6.85731 3.61905 7.01908 3.45728 7.01908 3.25714V2.17142H14.981V3.25714C14.981 3.45728 15.1428 3.61905 15.3429 3.61905H17.8762C18.0764 3.61905 18.2381 3.45728 18.2381 3.25714V2.17142H20.4096V5.42856ZM10.6381 9.04761H8.10474V11.5809H10.6381V9.04761ZM10.6381 15.5619H8.10474V18.0952H10.6381V15.5619ZM8.10474 12.3047H10.6381V14.838H8.10474V12.3047ZM7.38099 12.3047H4.84766V14.838H7.38099V12.3047ZM4.84766 9.04761H7.38099V11.5809H4.84766V9.04761ZM7.38099 15.5619H4.84766V18.0952H7.38099V15.5619ZM14.6191 9.04761H17.1525V11.5809H14.6191V9.04761ZM14.6191 12.3047H17.1525V14.838H14.6191V12.3047ZM17.1525 15.5619H14.6191V18.0952H17.1525V15.5619ZM11.3619 15.5619H13.8953V18.0952H11.3619V15.5619ZM13.8953 12.3047H11.3619V14.838H13.8953V12.3047ZM11.3619 9.04761H13.8953V11.5809H11.3619V9.04761Z" fill="#E5E5E5"/>
</svg>
