<svg width="100" height="101" viewBox="0 0 100 101" fill="none" xmlns="http://www.w3.org/2000/svg">
<mask id="mask0" mask-type="alpha" maskUnits="userSpaceOnUse" x="0" y="0" width="100" height="101">
<rect width="100" height="101" fill="#C4C4C4"/>
</mask>
<g mask="url(#mask0)">
<path fill-rule="evenodd" clip-rule="evenodd" d="M70.5546 79.5937C71.2836 77.3806 72.5556 75.3202 74.2144 73.6502L100.002 47.9668V31.4689H73.2399C71.1348 31.4689 69.555 29.7654 69.555 27.6603V1H12.4258C6.12537 1 1 6.12537 1 12.4258V119.575C1 125.875 6.12537 131.001 12.4258 131.001H88.4743C94.7748 131.001 100.002 125.875 100.002 119.575V91.1495L95.8163 95.2334C94.1205 96.9145 92.1344 98.1381 89.8952 98.8858L77.7851 102.929L75.9402 103.029C72.8903 103.029 70.0041 101.545 68.2115 99.0608C66.4337 96.5874 65.9502 93.3814 66.9171 90.484L70.5546 79.5937ZM20.043 69.555H58.0055C60.1106 69.555 61.8141 71.2584 61.8141 73.3636C61.8141 75.4687 60.1106 77.1722 58.0055 77.1722H20.043C17.9379 77.1722 16.2344 75.4687 16.2344 73.3636C16.2344 71.2584 17.9379 69.555 20.043 69.555ZM16.2344 58.1291C16.2344 56.024 17.9379 54.3205 20.043 54.3205H58.0055C60.1106 54.3205 61.8141 56.024 61.8141 58.1291C61.8141 60.2343 60.1106 61.9377 58.0055 61.9377H20.043C17.9379 61.9377 16.2344 60.2343 16.2344 58.1291ZM16.2344 88.598C16.2344 86.4929 17.9379 84.7894 20.043 84.7894H58.0055C60.1106 84.7894 61.8141 86.4929 61.8141 88.598C61.8141 90.7031 60.1106 92.4066 58.0055 92.4066H20.043C17.9379 92.4066 16.2344 90.7031 16.2344 88.598ZM73.2399 107.641C75.3451 107.641 77.0485 109.345 77.0485 111.45C77.0485 113.555 75.3453 115.258 73.2399 115.258H50.3883C48.2831 115.258 46.5797 113.555 46.5797 111.45C46.5797 109.345 48.2831 107.641 50.3883 107.641H73.2399ZM20.043 46.7033C17.9379 46.7033 16.2344 44.9998 16.2344 42.8947C16.2344 40.7896 17.9379 39.0861 20.043 39.0861H73.2399C75.3451 39.0861 77.0485 40.7896 77.0485 42.8947C77.0485 44.9998 75.3451 46.7033 73.2399 46.7033H20.043ZM99.9007 23.1971C99.9007 20.1471 98.7103 17.276 96.5531 15.1188L85.7819 4.34751C83.6546 2.22002 80.6349 1 77.6297 1H76.9751V23.8517H99.9009L99.9007 23.1971ZM74.1405 92.9042L77.454 82.9635L86.485 91.9944L76.5501 95.3125C75.061 95.8099 73.6439 94.3933 74.1405 92.9042ZM107.033 51.6053L81.9502 76.6885L92.7679 87.5062C98.4371 81.836 109.468 70.8035 117.85 62.4217L107.033 51.6053ZM123.361 38.5656C125.452 38.5656 127.423 39.3354 128.762 40.6819C131.745 43.6684 131.745 48.5216 128.77 51.5012C128.359 51.9117 126.265 54.006 123.235 57.0361L112.419 46.2201L117.953 40.6857C119.3 39.3354 121.271 38.5656 123.361 38.5656Z" fill="white"/>
</g>
</svg>
