<svg width="100" height="101" viewBox="0 0 100 101" fill="none" xmlns="http://www.w3.org/2000/svg">
<mask id="mask0" mask-type="alpha" maskUnits="userSpaceOnUse" x="0" y="0" width="100" height="101">
<rect width="100" height="101" fill="#C4C4C4"/>
</mask>
<g mask="url(#mask0)">
<path d="M62.6777 100.822H46.4277V117.072H62.6777V100.822Z" fill="white"/>
<path d="M62.6777 59.0361H46.4277V75.2861H62.6777V59.0361Z" fill="white"/>
<path d="M62.6777 79.9285H46.4277V96.1785H62.6777V79.9285Z" fill="white"/>
<path d="M41.7861 79.9285H25.5361V96.1785H41.7861V79.9285Z" fill="white"/>
<path d="M41.7861 59.0361H25.5361V75.2861H41.7861V59.0361Z" fill="white"/>
<path d="M41.7861 100.822H25.5361V117.072H41.7861V100.822Z" fill="white"/>
<path d="M104.464 59.0361H88.2139V75.2861H104.464V59.0361Z" fill="white"/>
<path d="M127.679 10.2857H111.429V3.32143C111.429 2.03768 110.391 1 109.107 1H92.8571C91.5734 1 90.5357 2.03768 90.5357 3.32143V10.2857H39.4643V3.32143C39.4643 2.03768 38.4266 1 37.1429 1H20.8929C19.6091 1 18.5714 2.03768 18.5714 3.32143V10.2857H2.32143C1.03768 10.2857 0 11.3234 0 12.6071V38.1429V137.964C0 139.248 1.03768 140.286 2.32143 140.286H127.679C128.962 140.286 130 139.248 130 137.964V38.1429V12.6071C130 11.3234 128.962 10.2857 127.679 10.2857ZM109.107 75.2857V79.9286V96.1786V100.821V121.714H88.2143H83.5714H67.3214H62.6786H46.4286H41.7857H20.8929V100.821V96.1786V79.9286V75.2857V54.3929H41.7857H46.4286H62.6786H67.3214H83.5714H88.2143H109.107V75.2857ZM125.357 35.8214H4.64286V14.9286H18.5714V21.8929C18.5714 23.1766 19.6091 24.2143 20.8929 24.2143H37.1429C38.4266 24.2143 39.4643 23.1766 39.4643 21.8929V14.9286H90.5357V21.8929C90.5357 23.1766 91.5734 24.2143 92.8571 24.2143H109.107C110.391 24.2143 111.429 23.1766 111.429 21.8929V14.9286H125.357V35.8214Z" fill="white"/>
<path d="M104.464 79.9285H88.2139V96.1785H104.464V79.9285Z" fill="white"/>
<path d="M104.464 100.822H88.2139V117.072H104.464V100.822Z" fill="white"/>
<path d="M83.5708 100.822H67.3208V117.072H83.5708V100.822Z" fill="white"/>
<path d="M83.5708 79.9285H67.3208V96.1785H83.5708V79.9285Z" fill="white"/>
<path d="M83.5708 59.0361H67.3208V75.2861H83.5708V59.0361Z" fill="white"/>
</g>
</svg>
