<svg width="20" height="20" viewBox="0 0 20 20" fill="none" xmlns="http://www.w3.org/2000/svg">
<path fill-rule="evenodd" clip-rule="evenodd" d="M1.45828 0H7.70828C8.51257 0 9.16672 0.654144 9.16672 1.45828V5.20828C9.16672 6.01257 8.51257 6.66672 7.70828 6.66672H1.45828C0.654144 6.66672 0 6.01257 0 5.20828V1.45828C0 0.654144 0.654144 0 1.45828 0ZM1.45828 8.33327H7.70828C8.51257 8.33327 9.16672 8.98741 9.16672 9.7917V18.5417C9.16672 19.3458 8.51257 20 7.70828 20H1.45828C0.654144 20 0 19.3458 0 18.5417V9.7917C0 8.98741 0.654144 8.33327 1.45828 8.33327ZM18.5418 13.3333H12.2918C11.4875 13.3333 10.8333 13.9874 10.8333 14.7917V18.5417C10.8333 19.3458 11.4875 20 12.2918 20H18.5418C19.3459 20 20 19.3458 20 18.5417V14.7917C20 13.9874 19.3459 13.3333 18.5418 13.3333ZM12.2918 0H18.5418C19.3459 0 20 0.654144 20 1.45828V10.2083C20 11.0126 19.3459 11.6667 18.5418 11.6667H12.2918C11.4875 11.6667 10.8333 11.0126 10.8333 10.2083V1.45828C10.8333 0.654144 11.4875 0 12.2918 0Z" fill="#0E8C45"/>
</svg>
