<svg width="100" height="101" viewBox="0 0 100 101" fill="none" xmlns="http://www.w3.org/2000/svg">
<mask id="mask0" mask-type="alpha" maskUnits="userSpaceOnUse" x="0" y="0" width="100" height="101">
<rect width="100" height="101" fill="#C4C4C4"/>
</mask>
<g mask="url(#mask0)">
<path fill-rule="evenodd" clip-rule="evenodd" d="M9.47881 1H50.1037C55.3316 1 59.5835 5.25193 59.5835 10.4788V34.8537C59.5835 40.0816 55.3316 44.3336 50.1037 44.3336H9.47881C4.25193 44.3336 0 40.0816 0 34.8537V10.4788C0 5.25193 4.25193 1 9.47881 1ZM9.47881 55.1666H50.1037C55.3316 55.1666 59.5835 59.4185 59.5835 64.6464V121.521C59.5835 126.748 55.3316 131 50.1037 131H9.47881C4.25193 131 0 126.748 0 121.521V64.6464C0 59.4185 4.25193 55.1666 9.47881 55.1666ZM120.521 87.6665H79.8964C74.6686 87.6665 70.4166 91.9184 70.4166 97.1463V121.521C70.4166 126.748 74.6686 131 79.8964 131H120.521C125.748 131 130 126.748 130 121.521V97.1463C130 91.9184 125.748 87.6665 120.521 87.6665ZM79.8964 1H120.521C125.748 1 130 5.25193 130 10.4788V67.3537C130 72.5815 125.748 76.8335 120.521 76.8335H79.8964C74.6686 76.8335 70.4166 72.5815 70.4166 67.3537V10.4788C70.4166 5.25193 74.6686 1 79.8964 1Z" fill="white"/>
</g>
</svg>
