<svg width="23" height="18" viewBox="0 0 23 18" fill="none" xmlns="http://www.w3.org/2000/svg">
<path fill-rule="evenodd" clip-rule="evenodd" d="M19.694 5.87755H4.90125C4.47668 5.87755 4.10266 6.16371 4.00171 6.54282L0.224609 16.3572V1.00359C0.224609 0.450363 0.674927 0 1.22815 0H8.12805L9.96484 2.57143H19.0577C19.611 2.57143 20.0613 3.02142 20.0613 3.57501V5.87755H19.694ZM5.16724 6.76549C5.19153 6.67549 5.27417 6.6123 5.36743 6.6123H22.2654V6.97964L18.5089 17.3341C18.4075 17.7139 18.0336 18.0001 17.6089 18.0001H1.16687C0.957764 18.0001 0.95813 17.9155 0.959106 17.6867L0.959351 17.6327V17.2654L5.16724 6.76549Z" fill="white"/>
</svg>
