<svg width="19" height="19" viewBox="0 0 19 19" fill="none" xmlns="http://www.w3.org/2000/svg">
<path fill-rule="evenodd" clip-rule="evenodd" d="M16.7734 1.48438H15.8828V0H14.3984V1.48438H4.60156V0H3.11719V1.48438H2.22656C0.998836 1.48438 0 2.48321 0 3.71094V16.7734C0 18.0012 0.998836 19 2.22656 19H16.7734C18.0012 19 19 18.0012 19 16.7734V3.71094C19 2.48321 18.0012 1.48438 16.7734 1.48438ZM17.5156 16.7734C17.5156 17.1827 17.1827 17.5156 16.7734 17.5156H2.22656C1.81732 17.5156 1.48438 17.1827 1.48438 16.7734V6.97656H17.5156V16.7734ZM17.5156 5.49219H1.48438V3.71094C1.48438 3.3017 1.81732 2.96875 2.22656 2.96875H3.11719V4.45312H4.60156V2.96875H14.3984V4.45312H15.8828V2.96875H16.7734C17.1827 2.96875 17.5156 3.3017 17.5156 3.71094V5.49219ZM4.30469 8.53516H2.82031V10.0195H4.30469V8.53516ZM5.78906 8.53516H7.27344V10.0195H5.78906V8.53516ZM10.2422 8.53516H8.75781V10.0195H10.2422V8.53516ZM11.7266 8.53516H13.2109V10.0195H11.7266V8.53516ZM16.1797 8.53516H14.6953V10.0195H16.1797V8.53516ZM2.82031 11.5039H4.30469V12.9883H2.82031V11.5039ZM7.27344 11.5039H5.78906V12.9883H7.27344V11.5039ZM8.75781 11.5039H10.2422V12.9883H8.75781V11.5039ZM13.2109 11.5039H11.7266V12.9883H13.2109V11.5039ZM2.82031 14.4727H4.30469V15.957H2.82031V14.4727ZM7.27344 14.4727H5.78906V15.957H7.27344V14.4727ZM8.75781 14.4727H10.2422V15.957H8.75781V14.4727ZM13.2109 14.4727H11.7266V15.957H13.2109V14.4727ZM14.6953 11.5039H16.1797V12.9883H14.6953V11.5039Z" fill="#7B7B7B"/>
</svg>
