<svg width="19" height="19" viewBox="0 0 19 19" fill="none" xmlns="http://www.w3.org/2000/svg">
<path fill-rule="evenodd" clip-rule="evenodd" d="M15.6961 0.416197C16.2894 -0.138732 17.25 -0.138732 17.8433 0.416197L18.5559 1.08434C19.1481 1.6406 19.1481 2.54116 18.5559 3.09743L17.9119 3.70129L15.052 1.02006L15.6961 0.416197ZM14.1377 1.72729L5.18188 10.8697L8.0702 13.8182L17.026 4.67572L14.1377 1.72729ZM15.6249 12.4702C15.6249 12.2308 15.8189 12.0368 16.0582 12.0368C16.2975 12.0368 16.4915 12.231 16.4915 12.4703V16.3177C16.4901 17.5137 15.5209 18.4829 14.3249 18.4842H2.16657C0.970556 18.4829 0.00135411 17.5137 0 16.3177V5.02595C0.00135411 3.82993 0.970556 2.86073 2.16657 2.85938H6.01393C6.25327 2.85938 6.44724 3.05335 6.44724 3.29269C6.44724 3.53203 6.25327 3.726 6.01393 3.726H2.16657C1.44889 3.72685 0.867475 4.30827 0.866629 5.02595V16.3177C0.867475 17.0352 1.44889 17.6168 2.16657 17.6176H14.3249C15.0426 17.6168 15.624 17.0352 15.6249 16.3177V12.4702ZM3.70117 15.0518L6.90895 14.1633L4.58968 11.844L3.70117 15.0518Z" fill="white"/>
</svg>
