<svg width="19" height="15" viewBox="0 0 19 15" fill="none" xmlns="http://www.w3.org/2000/svg">
<path fill-rule="evenodd" clip-rule="evenodd" d="M2.3234 0H16.6805C17.9621 0 19.0039 1.04572 19 2.32733V12.1359C19 13.4175 17.9582 14.4593 16.6766 14.4593H2.3234C1.04179 14.4593 0 13.4175 0 12.1359V2.32339C0 1.04181 1.04179 0 2.3234 0ZM16.6805 13.3979C17.3764 13.3979 17.9425 12.8318 17.9425 12.1359H17.9385V2.32733C17.9385 1.6315 17.3724 1.06537 16.6766 1.06537H2.3234C1.62756 1.06537 1.06145 1.6315 1.06145 2.32733V12.1359C1.06145 12.8318 1.62756 13.3979 2.3234 13.3979H16.6805ZM16.6295 2.94061L11.9827 7.10779L16.6491 11.5384C16.8614 11.7389 16.8693 12.077 16.6688 12.2892C16.5626 12.3993 16.425 12.4543 16.2835 12.4543C16.1538 12.4543 16.0201 12.4072 15.9179 12.3089L11.1925 7.81937L9.86761 9.00659C9.76933 9.09702 9.6396 9.1442 9.51379 9.1442C9.38799 9.1442 9.26219 9.10095 9.15998 9.01053L7.87051 7.85867L3.11756 12.305C3.01535 12.3993 2.88562 12.4465 2.75588 12.4465C2.61436 12.4465 2.47283 12.3875 2.36668 12.2774C2.16619 12.0612 2.17798 11.7271 2.39027 11.5266L7.07246 7.14316L2.37061 2.94061C2.15047 2.74405 2.13081 2.40988 2.32737 2.18973C2.52393 1.96957 2.8581 1.94992 3.07825 2.14648L8.16536 6.69894C8.19681 6.7225 8.22433 6.74609 8.25185 6.77362C8.25185 6.77585 8.25311 6.77808 8.25491 6.7803C8.25629 6.78201 8.258 6.78372 8.25971 6.78543L9.50986 7.90192L15.9179 2.15042C16.138 1.95386 16.4722 1.97351 16.6688 2.18973C16.8653 2.40988 16.8457 2.74405 16.6295 2.94061Z" fill="#CDCDCD"/>
</svg>
