<svg width="25" height="20" viewBox="0 0 25 20" fill="none" xmlns="http://www.w3.org/2000/svg">
<path fill-rule="evenodd" clip-rule="evenodd" d="M1.33916 19.6436H5.8036C6.17551 19.6436 6.4918 19.5133 6.75225 19.2529C7.01269 18.9923 7.14277 18.6761 7.14277 18.3041V15.6254C7.14277 15.2533 7.01269 14.9371 6.75225 14.6768C6.4918 14.4165 6.17551 14.2862 5.8036 14.2862H1.33916C0.967259 14.2862 0.650964 14.4165 0.39052 14.6768C0.130124 14.937 0 15.2534 0 15.6256V18.3043C0 18.6762 0.130124 18.9925 0.39052 19.253C0.650964 19.5134 0.967259 19.6436 1.33916 19.6436ZM1.33916 12.5H5.8036C6.17551 12.5 6.4918 12.3697 6.75225 12.1094C7.01269 11.8491 7.14277 11.5329 7.14277 11.1607V8.48188C7.14277 8.11003 7.01269 7.79397 6.75225 7.53363C6.4918 7.27323 6.17551 7.14301 5.8036 7.14301H1.33916C0.967259 7.14301 0.650964 7.27323 0.39052 7.53363C0.130124 7.79397 0 8.11003 0 8.48188V11.1607C0 11.5329 0.130124 11.8491 0.39052 12.1094C0.650964 12.3698 0.967259 12.5 1.33916 12.5ZM5.8036 5.35742H1.33916C0.967259 5.35742 0.650964 5.22735 0.39052 4.96681C0.130124 4.70631 0 4.39007 0 4.01816V1.33915C0 0.9673 0.130124 0.650858 0.39052 0.390707C0.650964 0.130165 0.967259 0.000236511 1.33916 0.000236511H5.8036C6.17551 0.000236511 6.4918 0.13036 6.75225 0.390707C7.01269 0.650858 7.14277 0.9673 7.14277 1.33915V4.01816C7.14277 4.39007 7.01269 4.70631 6.75225 4.96666C6.4918 5.227 6.17551 5.35742 5.8036 5.35742ZM10.2679 12.5H23.6607C24.0329 12.5 24.3489 12.3698 24.6093 12.1094C24.87 11.8491 25.0001 11.5329 25.0001 11.1607V8.48188C25.0001 8.11003 24.87 7.79397 24.6095 7.53363C24.3493 7.27323 24.0329 7.14301 23.661 7.14301H10.2679C9.89582 7.14301 9.57953 7.27323 9.31923 7.53363C9.05879 7.79397 8.92871 8.11003 8.92871 8.48188V11.1607C8.92871 11.5329 9.05879 11.8489 9.31923 12.1094C9.57967 12.3698 9.89582 12.5 10.2679 12.5ZM23.6607 5.35742H10.2679C9.89582 5.35742 9.57967 5.22735 9.31923 4.96681C9.05879 4.70631 8.92871 4.39021 8.92871 4.01836V1.3395C8.92871 0.967594 9.05879 0.651054 9.31923 0.390707C9.57953 0.130362 9.89582 0.000431061 10.2679 0.000431061H23.661C24.0329 0.000431061 24.3493 0.130508 24.6095 0.390707C24.87 0.651199 25.0001 0.967594 25.0001 1.3395V4.01836C25.0001 4.39021 24.87 4.7066 24.6093 4.96681C24.3489 5.22701 24.0329 5.35742 23.6607 5.35742ZM23.6607 19.6436C24.0329 19.6436 24.3489 19.5133 24.6093 19.253C24.87 18.9925 25.0001 18.6763 25.0001 18.3043V15.6256C25.0001 15.2534 24.87 14.9372 24.6095 14.6769C24.3489 14.4166 24.0329 14.2863 23.661 14.2863H10.2679C9.89582 14.2863 9.57953 14.4166 9.31923 14.6769C9.05879 14.9374 8.92871 15.2534 8.92871 15.6256V18.3043C8.92871 18.6762 9.05879 18.9925 9.31923 19.253C9.57967 19.5134 9.89582 19.6436 10.2679 19.6436H23.6607Z" fill="white"/>
</svg>
