<svg width="5" height="22" viewBox="0 0 5 22" fill="none" xmlns="http://www.w3.org/2000/svg">
<path fill-rule="evenodd" clip-rule="evenodd" d="M5 2.5C5 3.88071 3.88071 5 2.5 5C1.11929 5 0 3.88071 0 2.5C0 1.11929 1.11929 0 2.5 0C3.88071 0 5 1.11929 5 2.5ZM5 10.5C5 11.8807 3.88071 13 2.5 13C1.11929 13 0 11.8807 0 10.5C0 9.11929 1.11929 8 2.5 8C3.88071 8 5 9.11929 5 10.5ZM2.5 22C3.88071 22 5 20.8807 5 19.5C5 18.1193 3.88071 17 2.5 17C1.11929 17 0 18.1193 0 19.5C0 20.8807 1.11929 22 2.5 22Z" fill="#C4C4C4"/>
</svg>
