<svg width="12" height="14" viewBox="0 0 12 14" fill="none" xmlns="http://www.w3.org/2000/svg">
<path fill-rule="evenodd" clip-rule="evenodd" d="M10.6232 10.1389L11.6248 11.8084C11.6784 11.8982 11.6802 12.0114 11.6283 12.1024C11.5763 12.1934 11.4795 12.25 11.3745 12.25H0.291259C0.18626 12.25 0.0900105 12.1934 0.038085 12.1018C-0.0138405 12.0102 -0.0126647 11.8982 0.041585 11.8078L1.04315 10.1383C1.50515 9.3677 1.74958 8.48571 1.74958 7.58739V6.12497C1.74958 4.27873 2.98157 2.71716 4.66621 2.21374V1.16667C4.66621 0.523247 5.18946 0 5.83288 0C6.4763 0 6.99955 0.523247 6.99955 1.16667V2.21374C8.68421 2.71716 9.91621 4.27873 9.91621 6.12497V7.58739C9.91621 8.48571 10.1606 9.3683 10.6232 10.1389ZM5.83347 14C5.02208 14 4.32558 13.5205 3.99658 12.8334H7.67039C7.34139 13.5205 6.64487 14 5.83347 14Z" fill="#8E8E8E"/>
</svg>
