<svg width="17" height="21" viewBox="0 0 17 21" fill="none" xmlns="http://www.w3.org/2000/svg">
<path fill-rule="evenodd" clip-rule="evenodd" d="M13.0967 8.60818H14.6105C15.4453 8.60818 16.1244 9.28738 16.1244 10.1222V19.486C16.1244 20.3208 15.4453 21 14.6105 21H2.38954C1.55475 21 0.87561 20.3208 0.87561 19.486V10.1221C0.87561 9.28738 1.55475 8.60818 2.38954 8.60818H3.90338V4.59671C3.90338 2.06207 5.96545 0 8.50005 0C11.0346 0 13.0967 2.06207 13.0967 4.59671V8.60818ZM8.50001 1.00931C6.5219 1.00931 4.91261 2.61865 4.91261 4.59671V8.60818H12.0874V4.59671C12.0874 2.61865 10.4781 1.00931 8.50001 1.00931ZM14.6105 19.9907C14.8887 19.9907 15.1151 19.7643 15.1151 19.4861V10.1222C15.1151 9.84387 14.8887 9.61749 14.6105 9.61749H2.38954C2.11129 9.61749 1.88488 9.8439 1.88488 10.1222V19.4861C1.88488 19.7644 2.11129 19.9907 2.38954 19.9907H14.6105ZM6.41602 13.432C6.41602 12.2828 7.35088 11.348 8.50002 11.348C9.64906 11.348 10.584 12.2828 10.5841 13.432C10.5841 14.002 10.347 14.5532 9.93367 14.9451V16.8267C9.93367 17.6172 9.29055 18.2603 8.50005 18.2603C7.70956 18.2603 7.06644 17.6172 7.06644 16.8267V14.9451C6.65288 14.5529 6.41602 14.0019 6.41602 13.432ZM8.92432 14.9333C8.92432 14.6639 9.03843 14.4018 9.23739 14.2143C9.45486 14.0092 9.5747 13.7314 9.57462 13.432C9.57462 12.8394 9.09248 12.3573 8.49993 12.3573C7.90738 12.3573 7.42525 12.8394 7.42525 13.432C7.42525 13.7314 7.54509 14.0092 7.76276 14.2145C7.9616 14.4019 8.07571 14.6639 8.07571 14.9333V16.8267C8.07571 17.0607 8.26606 17.251 8.50002 17.251C8.73401 17.251 8.92432 17.0607 8.92432 16.8267V14.9333Z" fill="#CDCDCD"/>
</svg>
