<svg width="11" height="15" viewBox="0 0 11 15" fill="none" xmlns="http://www.w3.org/2000/svg">
<path fill-rule="evenodd" clip-rule="evenodd" d="M2.5883 3.53656C2.5883 5.48974 3.89194 7.07308 5.49992 7.07308C7.10798 7.07308 8.41162 5.48974 8.41162 3.53656C8.41162 1.58335 7.98353 0 5.49992 0C3.0163 0 2.5883 1.58335 2.5883 3.53656ZM3.90568 7.34442C0.505233 7.95813 0.0608635 8.92765 0.00693893 12.3301C0.00350952 12.5478 0.00168991 12.5854 0.000781059 12.566L0.000988007 12.8304C0.000988007 12.8304 0.810638 14.4624 5.50002 14.4624C10.1895 14.4624 10.9991 12.8304 10.9991 12.8304C10.9991 12.6406 10.9993 12.5318 10.9995 12.4729C10.9986 12.5043 10.9962 12.4901 10.9912 12.2196C10.9292 8.90657 10.4578 7.95143 7.09445 7.34442C7.09445 7.34442 6.6157 7.95436 5.50002 7.95436C4.38435 7.95436 3.90568 7.34442 3.90568 7.34442Z" fill="#8E8E8E"/>
</svg>
