<svg width="22" height="22" viewBox="0 0 22 22" fill="none" xmlns="http://www.w3.org/2000/svg">
<path d="M21.8049 20.878L16.4585 15.5317C17.8927 13.8829 18.761 11.7317 18.761 9.38049C18.761 4.20488 14.5512 0 9.38049 0C4.20488 0 0 4.20976 0 9.38049C0 14.5512 4.20976 18.761 9.38049 18.761C11.7317 18.761 13.8829 17.8927 15.5317 16.4585L20.878 21.8049C21.0049 21.9317 21.1756 22 21.3415 22C21.5073 22 21.678 21.9366 21.8049 21.8049C22.0585 21.5512 22.0585 21.1317 21.8049 20.878ZM1.3122 9.38049C1.3122 4.93171 4.93171 1.31707 9.37561 1.31707C13.8244 1.31707 17.439 4.93659 17.439 9.38049C17.439 13.8244 13.8244 17.4488 9.37561 17.4488C4.93171 17.4488 1.3122 13.8293 1.3122 9.38049Z" fill="#CCCCCC"/>
</svg>
