<svg width="8" height="9" viewBox="0 0 8 9" fill="none" xmlns="http://www.w3.org/2000/svg">
<path d="M7.70046 3.76756L4.32951 0.317917C4.13069 0.113503 3.8644 0.000618012 3.57984 3.17897e-08C3.57902 3.17897e-08 3.57827 3.17897e-08 3.57745 3.17897e-08C3.29372 3.17897e-08 3.02791 0.111649 2.82874 0.314552L2.66576 0.480583C2.58551 0.562363 2.52044 0.654991 2.47132 0.755035L2.03617 0.316612C1.83748 0.113091 1.57174 0.000618012 1.28773 3.17897e-08C1.00359 -6.86328e-05 0.736411 0.111099 0.536627 0.314552L0.373721 0.480583C0.176674 0.681358 0.069324 0.947021 0.071445 1.22882C0.0736344 1.51062 0.184952 1.7747 0.385694 1.97308L2.94498 4.4886L0.317891 7.02857C0.317207 7.02919 0.316523 7.02988 0.315838 7.03049C0.113728 7.22907 0.00158898 7.4948 1.53373e-05 7.77866C-0.00148989 8.06259 0.107844 8.32942 0.307833 8.5302L0.46814 8.69101C0.666761 8.89041 0.930448 9 1.21124 9H1.21624C1.49757 8.9987 1.76119 8.88746 1.95886 8.68675L2.4367 8.21681C2.48828 8.33196 2.56074 8.43812 2.65242 8.53013L2.81273 8.69101C3.01135 8.89034 3.27511 9 3.55583 9C3.55754 9 3.55918 9 3.56089 8.99993C3.84305 8.99863 4.10736 8.88677 4.30516 8.68497L5.43161 7.54891C5.56811 7.41124 5.56756 7.18863 5.43038 7.05171C5.29327 6.91473 5.07145 6.91528 4.93496 7.05288L3.80768 8.18976C3.80713 8.19038 3.80652 8.19093 3.80597 8.19147C3.74001 8.25897 3.65182 8.29633 3.55761 8.29674C3.4636 8.29736 3.37479 8.26062 3.30822 8.19374L3.14791 8.03293C3.08127 7.96598 3.04481 7.87699 3.04535 7.78244C3.04583 7.68775 3.08319 7.59917 3.15058 7.53298C3.17391 7.51012 3.193 7.48464 3.20853 7.45773L5.45474 5.24872L5.45953 5.24391C5.65322 5.04581 5.76016 4.78393 5.7605 4.50639C5.76084 4.22884 5.65466 3.96668 5.46151 3.7681C5.46069 3.76728 5.45987 3.76646 5.45905 3.76563L3.11665 1.40536C3.08319 1.35118 3.06472 1.28883 3.06417 1.22346C3.06349 1.12953 3.09927 1.04095 3.16495 0.974075L3.32786 0.808044C3.3945 0.740273 3.48385 0.703056 3.57827 0.703194C3.6731 0.7034 3.76184 0.741096 3.82869 0.809761L7.19963 4.2594C7.33175 4.39522 7.33148 4.61591 7.19949 4.75076L6.1689 5.79968C6.03302 5.93797 6.03459 6.16058 6.17232 6.29688C6.2406 6.36445 6.32948 6.39816 6.41835 6.39816C6.5088 6.39816 6.59925 6.36321 6.66781 6.29345L7.69902 5.24391C7.89272 5.04588 7.99966 4.78393 8 4.50645C8.00034 4.22891 7.89416 3.96668 7.70046 3.76756ZM4.96143 4.74932L1.46617 8.18667C1.4646 8.18832 1.46295 8.1899 1.46138 8.19154C1.39543 8.25897 1.30723 8.29633 1.21302 8.29681C1.21247 8.29681 1.21192 8.29681 1.21131 8.29681C1.11771 8.29681 1.02979 8.26028 0.963563 8.19374L0.803325 8.03293C0.736617 7.96598 0.700217 7.87706 0.700696 7.78244C0.701244 7.68823 0.738259 7.6 0.805104 7.53394L3.69089 4.7439C3.7591 4.67798 3.79776 4.5872 3.79817 4.49217C3.79858 4.39714 3.76061 4.30602 3.69301 4.23949L0.876671 1.47134C0.809962 1.40543 0.77281 1.3174 0.772126 1.22353C0.771442 1.1296 0.807225 1.04102 0.872908 0.974075L1.03581 0.808044C1.10225 0.74041 1.19085 0.703194 1.28541 0.703194H1.28616C1.38106 0.7034 1.4698 0.741028 1.53609 0.809143C1.53692 0.809967 1.53774 0.81086 1.53856 0.811684L2.57634 1.85738C2.60686 1.89775 2.64045 1.9362 2.67705 1.97239C2.69594 1.991 2.71646 2.00679 2.73801 2.02025L4.96109 4.26036C5.09157 4.39556 5.09164 4.61405 4.96143 4.74932Z" fill="white"/>
</svg>
