<svg width="14" height="14" viewBox="0 0 14 14" fill="none" xmlns="http://www.w3.org/2000/svg">
<path fill-rule="evenodd" clip-rule="evenodd" d="M13.9562 6.22289C13.9341 6.02608 13.7046 5.8782 13.5062 5.8782C12.8647 5.8782 12.2954 5.50152 12.0567 4.91898C11.8128 4.32233 11.9701 3.62649 12.4481 3.18793C12.5986 3.05036 12.6169 2.82006 12.4907 2.66009C12.1624 2.24315 11.7892 1.86653 11.3817 1.54013C11.2222 1.41208 10.9881 1.4299 10.8497 1.5831C10.4325 2.0452 9.68298 2.21695 9.10382 1.9753C8.50113 1.72177 8.12107 1.11105 8.15826 0.455477C8.1705 0.24956 8.02001 0.0705216 7.81472 0.0466116C7.29182 -0.0138665 6.76434 -0.0157418 6.23989 0.0424443C6.03694 0.0648436 5.88645 0.239662 5.89327 0.442975C5.91609 1.09209 5.53144 1.69213 4.93474 1.93654C4.36251 2.17028 3.61828 1.99999 3.20186 1.542C3.06424 1.39114 2.83394 1.3726 2.6736 1.49757C2.25406 1.82673 1.87249 2.20367 1.54114 2.61717C1.4119 2.77792 1.43091 3.01093 1.58291 3.14923C2.07012 3.59044 2.22744 4.29232 1.97433 4.89586C1.73268 5.47126 1.13519 5.8421 0.451175 5.8421C0.229213 5.83496 0.0711157 5.98394 0.0468411 6.18574C-0.014731 6.71166 -0.0154602 7.24752 0.0438198 7.77771C0.0658024 7.97535 0.302245 8.12193 0.50285 8.12193C1.11242 8.10636 1.69767 8.48376 1.94318 9.08119C2.1879 9.67785 2.03059 10.3733 1.55176 10.8122C1.402 10.9498 1.38299 11.1797 1.5092 11.3397C1.83446 11.754 2.2077 12.1309 2.61662 12.4601C2.77701 12.5893 3.01038 12.5711 3.14941 12.4179C3.56822 11.9546 4.31766 11.7832 4.89452 12.0253C5.49873 12.278 5.87879 12.8887 5.8416 13.5447C5.82946 13.7507 5.98068 13.93 6.18514 13.9536C6.45263 13.9848 6.72173 14.0003 6.99157 14.0003C7.2477 14.0003 7.50389 13.9863 7.76002 13.9578C7.96302 13.9354 8.11341 13.7606 8.10658 13.5569C8.08309 12.9081 8.46841 12.3081 9.06434 12.0641C9.64042 11.8288 10.3815 12.001 10.798 12.4585C10.9364 12.6091 11.1651 12.6273 11.3263 12.5027C11.7451 12.1743 12.1259 11.7977 12.4588 11.3831C12.588 11.2227 12.5697 10.9893 12.4169 10.8511C11.9297 10.4098 11.7716 9.70785 12.0247 9.10474C12.2627 8.53699 12.838 8.15579 13.4568 8.15579L13.5434 8.15803C13.7441 8.17433 13.9287 8.01973 13.9531 7.81485C14.0147 7.28847 14.0155 6.75307 13.9562 6.22289ZM7.0111 9.34993C5.72351 9.34993 4.67616 8.30258 4.67616 7.01499C4.67616 5.72744 5.72351 4.68004 7.0111 4.68004C8.29865 4.68004 9.346 5.72744 9.346 7.01499C9.346 8.30258 8.29865 9.34993 7.0111 9.34993Z" fill="#8E8E8E"/>
</svg>
