<svg width="19" height="20" viewBox="0 0 19 20" fill="none" xmlns="http://www.w3.org/2000/svg">
<path fill-rule="evenodd" clip-rule="evenodd" d="M1.5899 18.0114H10.2016V15.4918H11.8606V19.7573H0V0.55127H11.8606V8.05813H10.2016V2.30741H1.5899V18.0114ZM14.0986 7.26589C14.0986 7.26589 18.0028 11.047 18.4133 11.4548C18.7116 11.753 18.3784 12.0356 18.3784 12.0356L14.1978 16.3339C14.1978 16.3339 13.7025 16.8579 13.7025 16.2888V14.3397H12.8535H5.47865C5.47865 14.3397 5.18311 14.4191 5.18311 13.9675V9.54812C5.18311 9.22658 5.43076 9.23547 5.43076 9.23547H12.8172H13.5786V7.43487C13.5786 6.74254 14.0986 7.26589 14.0986 7.26589Z" fill="#0E8C45"/>
</svg>
