<svg width="20" height="20" viewBox="0 0 20 20" fill="none" xmlns="http://www.w3.org/2000/svg">
<path fill-rule="evenodd" clip-rule="evenodd" d="M10.7007 12.0913C10.8128 11.7509 11.0086 11.4339 11.2637 11.177L15.231 7.22565V4.68752H11.1138C10.79 4.68752 10.5469 4.42545 10.5469 4.10158V0H1.75782C0.788518 0 0 0.788518 0 1.75782V18.2423C0 19.2115 0.788518 20.0001 1.75782 20.0001H13.4576C14.4269 20.0001 15.231 19.2115 15.231 18.2423V13.8691L14.5871 14.4974C14.3262 14.7561 14.0207 14.9443 13.6762 15.0593L11.8131 15.6813L11.5293 15.6968C11.06 15.6968 10.616 15.4685 10.3402 15.0863C10.0667 14.7058 9.99234 14.2125 10.1411 13.7668L10.7007 12.0913ZM2.9297 10.5469H8.77007C9.09394 10.5469 9.35601 10.809 9.35601 11.1329C9.35601 11.4567 9.09394 11.7188 8.77007 11.7188H2.9297C2.60583 11.7188 2.34376 11.4567 2.34376 11.1329C2.34376 10.809 2.60583 10.5469 2.9297 10.5469ZM2.34376 8.78909C2.34376 8.46522 2.60583 8.20315 2.9297 8.20315H8.77007C9.09394 8.20315 9.35601 8.46522 9.35601 8.78909C9.35601 9.11296 9.09394 9.37503 8.77007 9.37503H2.9297C2.60583 9.37503 2.34376 9.11296 2.34376 8.78909ZM2.34376 13.4766C2.34376 13.1527 2.60583 12.8907 2.9297 12.8907H8.77007C9.09394 12.8907 9.35601 13.1527 9.35601 13.4766C9.35601 13.8005 9.09394 14.0625 8.77007 14.0625H2.9297C2.60583 14.0625 2.34376 13.8005 2.34376 13.4766ZM11.1138 16.4063C11.4377 16.4063 11.6998 16.6684 11.6998 16.9922C11.6998 17.3161 11.4377 17.5782 11.1138 17.5782H7.59819C7.27432 17.5782 7.01225 17.3161 7.01225 16.9922C7.01225 16.6684 7.27432 16.4063 7.59819 16.4063H11.1138ZM2.9297 7.03127C2.60583 7.03127 2.34376 6.7692 2.34376 6.44533C2.34376 6.12147 2.60583 5.8594 2.9297 5.8594H11.1138C11.4377 5.8594 11.6998 6.12147 11.6998 6.44533C11.6998 6.7692 11.4377 7.03127 11.1138 7.03127H2.9297ZM15.2153 3.41493C15.2153 2.94571 15.0322 2.50399 14.7003 2.17212L13.0432 0.515002C12.716 0.187696 12.2514 0 11.789 0H11.6883V3.51564H15.2154L15.2153 3.41493ZM11.2523 14.1391L11.7621 12.6098L13.1515 13.9991L11.623 14.5096C11.3939 14.5861 11.1759 14.3682 11.2523 14.1391ZM16.3129 7.78544L12.4539 11.6444L14.1182 13.3087L17.9769 9.44951L16.3129 7.78544ZM18.8249 5.77932C19.1465 5.77932 19.4497 5.89776 19.6557 6.1049C20.1146 6.56436 20.1146 7.311 19.6569 7.7694L18.8054 8.62093L17.1414 6.95694L17.9929 6.10549C18.2 5.89776 18.5033 5.77932 18.8249 5.77932Z" fill="#E5E5E5"/>
</svg>
