<svg width="20" height="20" viewBox="0 0 20 20" fill="none" xmlns="http://www.w3.org/2000/svg">
<path d="M19.7554 7.36059C19.5443 7.09792 19.2261 6.94458 18.8892 6.94458H17.7781C17.7781 6.33079 17.2807 5.83345 16.6669 5.83345H15.5558V4.72232C15.5558 4.10854 15.0585 3.61119 14.4447 3.61119H13.8891V1.38894C13.8891 1.08227 13.6398 0.833374 13.3335 0.833374H2.22226C1.91514 0.833374 1.66669 1.08227 1.66669 1.38894V3.61119H1.11113C0.497341 3.61119 0 4.10854 0 4.72232V18.0559C0 18.6696 0.497341 19.167 1.11113 19.167H3.33338H14.4447H16.6669C17.1878 19.167 17.6394 18.8052 17.7509 18.2968L19.9732 8.2966C20.047 7.96771 19.9665 7.62326 19.7554 7.36059ZM1.66669 18.0559H1.11113V4.72232H1.66669V18.0559ZM13.3335 5.83345C12.7198 5.83345 12.2224 6.33079 12.2224 6.94458H5.55564C5.03474 6.94458 4.58318 7.30636 4.47074 7.81482C4.47074 7.81482 2.22315 17.9759 2.22315 18.0559H2.22226V1.38894H13.3335V5.83345ZM14.4447 5.83345H13.8891V4.72232H14.4447V5.83345ZM11.0371 3.85209H4.40762C4.10095 3.85209 3.85206 3.60319 3.85206 3.29652C3.85206 2.98985 4.10095 2.74096 4.40762 2.74096H11.0371C11.3437 2.74096 11.5926 2.98985 11.5926 3.29652C11.5926 3.60319 11.3437 3.85209 11.0371 3.85209ZM11.0371 6.11123H4.40762C4.10095 6.11123 3.85206 5.86234 3.85206 5.55567C3.85206 5.249 4.10095 5.0001 4.40762 5.0001H11.0371C11.3437 5.0001 11.5926 5.249 11.5926 5.55567C11.5926 5.86234 11.3437 6.11123 11.0371 6.11123Z" fill="#E5E5E5"/>
</svg>
