<svg width="20" height="28" viewBox="0 0 20 28" fill="none" xmlns="http://www.w3.org/2000/svg">
<path fill-rule="evenodd" clip-rule="evenodd" d="M12.3567 2.33329H14.1667C14.6267 2.33329 15 2.70663 15 3.16663V6.49996C15 6.95996 14.6267 7.33329 14.1667 7.33329H5.83333C5.37333 7.33329 5 6.95996 5 6.49996V3.16663C5 2.70663 5.37333 2.33329 5.83333 2.33329H7.64167C7.98667 1.36329 8.91333 0.666626 10 0.666626C11.0867 0.666626 12.0133 1.36329 12.3567 2.33329ZM16.6667 3.99996H18.3333C19.2683 3.99996 20 4.73163 20 5.66663V25.6666C20 26.6016 19.2683 27.3333 18.3333 27.3333H1.66667C0.731667 27.3333 0 26.6016 0 25.6666V5.66663C0 4.74829 0.748333 3.99996 1.66667 3.99996H3.33333V6.49996C3.33333 7.87829 4.455 8.99996 5.83333 8.99996H14.1667C15.545 8.99996 16.6667 7.87829 16.6667 6.49996V3.99996ZM5.83333 22.3333C6.04667 22.3333 6.26 22.2516 6.42333 22.09L9.75667 18.7566C10.0817 18.43 10.08 17.9033 9.755 17.5783C9.43 17.2533 8.90167 17.2533 8.57667 17.5783L5.83333 20.3216L4.755 19.245C4.43 18.92 3.90167 18.92 3.57667 19.245C3.25167 19.57 3.25167 20.0983 3.57667 20.4233L5.24333 22.09C5.40667 22.2516 5.62 22.3333 5.83333 22.3333ZM6.42333 15.4233L9.75667 12.09C10.0817 11.7633 10.08 11.2366 9.755 10.9116C9.43 10.5866 8.90167 10.5866 8.57667 10.9116L5.83333 13.655L4.755 12.5783C4.43 12.2533 3.90167 12.2533 3.57667 12.5783C3.25167 12.9033 3.25167 13.4316 3.57667 13.7566L5.24333 15.4233C5.40667 15.585 5.62 15.6666 5.83333 15.6666C6.04667 15.6666 6.26 15.585 6.42333 15.4233ZM11.6667 19.8333C11.6667 20.2933 12.04 20.6666 12.5 20.6666H15.8333C16.2933 20.6666 16.6667 20.2933 16.6667 19.8333C16.6667 19.3733 16.2933 19 15.8333 19H12.5C12.04 19 11.6667 19.3733 11.6667 19.8333ZM12.5 14H15.8333C16.2933 14 16.6667 13.6266 16.6667 13.1666C16.6667 12.7066 16.2933 12.3333 15.8333 12.3333H12.5C12.04 12.3333 11.6667 12.7066 11.6667 13.1666C11.6667 13.6266 12.04 14 12.5 14Z" fill="#E5E5E5"/>
</svg>
