<svg width="228" height="191" viewBox="0 0 228 191" fill="none" xmlns="http://www.w3.org/2000/svg">
<path fill-rule="evenodd" clip-rule="evenodd" d="M175.309 64.9543C184.357 63.5852 193.782 64.869 194.339 64.9462C213.251 68.5457 227.511 85.9706 227.511 105.516C227.511 127.979 209.233 146.257 186.77 146.257H146.943C146.745 146.257 146.552 146.243 146.358 146.229C146.318 146.226 146.277 146.223 146.237 146.22L145.136 146.176L144.331 146.22C144.291 146.223 144.25 146.226 144.21 146.229C144.015 146.243 143.823 146.257 143.624 146.257H134.183V128.613L138.94 133.37C142.117 136.543 146.273 138.131 150.433 138.131C154.593 138.131 158.754 136.543 161.927 133.37C168.273 127.028 168.273 116.737 161.927 110.391L129.425 77.8899C128.669 77.1342 127.837 76.4558 126.947 75.8626C126.687 75.6873 126.411 75.5484 126.135 75.4097C125.989 75.3363 125.843 75.2629 125.7 75.1841C125.568 75.1121 125.438 75.0382 125.307 74.9642C124.93 74.7505 124.552 74.5366 124.148 74.3675C123.757 74.2047 123.353 74.0937 122.949 73.9825C122.799 73.9411 122.648 73.8997 122.498 73.8556C122.351 73.8113 122.205 73.7629 122.06 73.7143C121.751 73.6116 121.443 73.5088 121.117 73.4453C119.017 73.0268 116.851 73.0268 114.751 73.4453C114.446 73.5079 114.154 73.6039 113.862 73.7C113.699 73.7538 113.535 73.8076 113.369 73.8556C113.219 73.8997 113.069 73.9411 112.919 73.9825C112.514 74.0937 112.111 74.2047 111.72 74.3675C111.319 74.5323 110.944 74.7456 110.569 74.9586C110.436 75.0346 110.303 75.1105 110.168 75.1841C110.024 75.2631 109.878 75.3372 109.731 75.4114C109.456 75.5508 109.181 75.6902 108.921 75.8626C108.031 76.4598 107.198 77.1342 106.442 77.8899L73.941 110.391C67.595 116.733 67.595 127.024 73.941 133.37C77.118 136.543 81.2741 138.131 85.4343 138.131C89.5945 138.131 93.7547 136.543 96.9277 133.37L101.685 128.613V146.257H44.0599C19.765 146.257 0 126.492 0 102.193C0 85.3165 10.9896 67.7982 26.1353 60.5381L28.4388 59.4371V56.8777C28.4388 56.4225 28.4641 55.9611 28.4896 55.4961C28.493 55.434 28.4964 55.3717 28.4998 55.3095L28.5363 54.6594L28.4876 53.8063L28.4876 53.8062C28.4632 53.4771 28.4388 53.1481 28.4388 52.815C28.4388 37.137 41.1997 24.3761 56.8777 24.3761C58.133 24.3761 59.3722 24.4858 60.5991 24.6443C60.916 24.689 61.2288 24.7377 61.5457 24.7905C62.6304 24.9734 63.6989 25.2049 64.7512 25.5096C64.8223 25.5299 64.8944 25.5472 64.9665 25.5645C65.0386 25.5817 65.1107 25.599 65.1818 25.6193C66.3397 25.9728 67.4691 26.4197 68.5742 26.9234C68.8261 27.037 69.0749 27.1598 69.3207 27.2812C69.3563 27.2987 69.3918 27.3163 69.4273 27.3338C70.4024 27.8172 71.3571 28.3454 72.2793 28.9426C80.1122 34.0169 85.3165 42.8126 85.3165 52.815C85.3165 55.0616 87.1325 56.8777 89.3792 56.8777C91.6259 56.8777 93.4419 55.0616 93.4419 52.815C93.4419 41.6263 88.3798 31.6118 80.4413 24.9002C92.089 9.66514 111.269 0 130.351 0C161.817 0 187.948 24.9246 190.674 56.4186C186.526 56.1261 180.306 55.9757 174.086 56.9223C171.868 57.2595 170.345 59.3315 170.682 61.5497C170.986 63.5648 172.717 65.003 174.692 65.003C174.895 65.003 175.102 64.9868 175.309 64.9543ZM156.064 127.625C154.48 129.214 152.4 130.006 150.319 130.006C148.239 130.006 146.159 129.214 144.575 127.625L125.943 108.994V182.821C125.943 187.306 122.303 190.947 117.818 190.947C113.333 190.947 109.693 187.306 109.693 182.821V108.994L91.0611 127.625C89.4766 129.214 87.3965 130.006 85.3164 130.006C83.2363 130.006 81.1562 129.214 79.5677 127.625C76.3947 124.452 76.3947 119.309 79.5677 116.136L112.065 83.6387C112.443 83.2609 112.861 82.9196 113.308 82.623C113.435 82.5393 113.57 82.4713 113.705 82.4034C113.786 82.3627 113.867 82.3219 113.946 82.2777C114.016 82.2396 114.084 82.2002 114.153 82.1609C114.333 82.0578 114.512 81.9549 114.706 81.8755C114.912 81.7892 115.123 81.731 115.336 81.6725C115.403 81.6538 115.471 81.6351 115.539 81.6155C115.61 81.5938 115.681 81.57 115.752 81.5462C115.906 81.4946 116.06 81.443 116.221 81.4124C117.274 81.2011 118.354 81.2011 119.406 81.4124C119.569 81.4459 119.723 81.4969 119.878 81.5479C119.948 81.5709 120.018 81.594 120.089 81.6155C120.159 81.6358 120.229 81.6551 120.3 81.6744C120.511 81.7323 120.722 81.7902 120.926 81.8755C121.121 81.9567 121.303 82.0602 121.487 82.1645C121.552 82.2011 121.616 82.2378 121.682 82.2736C121.755 82.3139 121.83 82.3512 121.904 82.3885C122.047 82.4605 122.19 82.5321 122.323 82.623C122.77 82.9196 123.189 83.2609 123.567 83.6387L156.064 116.136C159.237 119.309 159.237 124.452 156.064 127.625Z" fill="#0E8C45"/>
</svg>
