<svg width="24" height="14" viewBox="0 0 24 14" fill="none" xmlns="http://www.w3.org/2000/svg">
<path d="M12.4246 0.083252C8.00155 0.083252 3.9905 2.50314 1.03075 6.4337C0.78923 6.75572 0.78923 7.2056 1.03075 7.52762C3.9905 11.4629 8.00155 13.8828 12.4246 13.8828C16.8477 13.8828 20.8587 11.4629 23.8185 7.53235C24.06 7.21033 24.06 6.76045 23.8185 6.43843C20.8587 2.50315 16.8477 0.083252 12.4246 0.083252ZM12.7419 11.8418C9.80582 12.0264 7.38119 9.60655 7.56588 6.66574C7.71742 4.24111 9.68269 2.27584 12.1073 2.1243C15.0434 1.93961 17.468 4.3595 17.2833 7.30031C17.1271 9.7202 15.1618 11.6855 12.7419 11.8418ZM12.5951 9.59708C11.0134 9.69652 9.70637 8.39423 9.81055 6.81254C9.89106 5.50552 10.9518 4.44948 12.2589 4.36424C13.8406 4.26479 15.1476 5.56708 15.0434 7.14877C14.9582 8.46053 13.8974 9.51657 12.5951 9.59708Z" fill="white"/>
</svg>
